<?xml version="1.0" encoding="UTF-8"?>
<!DOCTYPE svg PUBLIC "-//W3C//DTD SVG 1.1//EN" "http://www.w3.org/Graphics/SVG/1.1/DTD/svg11.dtd">
<!-- Creator: CorelDRAW -->
<svg xmlns="http://www.w3.org/2000/svg" xml:space="preserve" width="91.44mm" height="91.44mm" version="1.1" style="shape-rendering:geometricPrecision; text-rendering:geometricPrecision; image-rendering:optimizeQuality; fill-rule:evenodd; clip-rule:evenodd"
viewBox="0 0 9144 9144"
 xmlns:xlink="http://www.w3.org/1999/xlink"
 xmlns:xodm="http://www.corel.com/coreldraw/odm/2003">
 <defs>
  <style type="text/css">
   <![CDATA[
    .str2 {stroke:white;stroke-width:42.33;stroke-miterlimit:22.9256}
    .str0 {stroke:#1DA1AA;stroke-width:16.93;stroke-miterlimit:22.9256}
    .str1 {stroke:white;stroke-width:16.93;stroke-miterlimit:22.9256}
    .str3 {stroke:#1DA1AA;stroke-width:7.62;stroke-miterlimit:22.9256}
    .fil0 {fill:#1DA1AA}
    .fil1 {fill:white}
   ]]>
  </style>
 </defs>
 <g id="Layer_x0020_1">
  <metadata id="CorelCorpID_0Corel-Layer"/>
  <path class="fil0 str0" d="M3541.34 6078.14c21.76,1008.7 32.71,1512.99 32.71,1512.99 686.4,612.29 1381.9,618.22 2086.51,17.8 -3.96,-1038.24 -5.94,-1557.43 -5.94,-1557.43 598.71,-376.5 956.48,-1039.17 942.77,-1746.27 -48.4,-2495.06 -3940.39,-2668.34 -3950.55,22.15 -2.63,693.92 330.61,1346.3 894.5,1750.76z"/>
  <path class="fil0" d="M1479.2 5342.74c-359.87,-320.21 487.41,-948.77 782.27,-596.06 313.63,376.06 -496.91,850.32 -782.27,596.06z"/>
  <path class="fil0" d="M7664.81 5344.06c359.86,-320.21 -487.41,-948.77 -782.27,-596.06 -313.64,376.06 496.91,850.32 782.27,596.06z"/>
  <path class="fil0" d="M6461 2856.65c-359.87,-320.2 487.41,-948.76 782.27,-596.06 313.63,376.06 -496.91,850.33 -782.27,596.06z"/>
  <path class="fil0" d="M2672.46 2909.14c359.86,-320.21 -487.41,-948.77 -782.27,-596.06 -313.64,376.06 496.91,850.32 782.27,596.06z"/>
  <path class="fil0" d="M4545.58 2073.15c468.45,112.22 499.83,-942.28 41.87,-982.59 -487.84,-42.36 -413.62,893.81 -41.87,982.59z"/>
  <path class="fil1 str1" d="M3922.28 5447.15c13.85,642.18 20.82,963.23 20.82,963.23 436.99,389.81 879.78,393.58 1328.35,11.33 -2.52,-660.98 -3.78,-991.51 -3.78,-991.51 381.16,-239.7 608.94,-661.58 600.2,-1111.75 -30.81,-1588.44 -2508.6,-1698.76 -2515.06,14.11 -1.68,441.77 210.48,857.1 569.47,1114.59z"/>
  <path class="fil0 str2" d="M3479.43 7211.96c-36.73,-16.2 -58.52,-52.44 -54.3,-90.34 4.22,-37.88 33.52,-69.12 73.03,-77.83 715.45,187.05 1460.01,184.38 2233.66,-7.99 37.63,11.81 63.07,44.82 63.22,82.07 0.15,37.26 -25.01,70.45 -62.54,82.54 -723.64,170.98 -1474.67,174.83 -2253.07,11.55z"/>
  <path class="fil0 str2" d="M3479.43 6915.63c-36.73,-16.2 -58.52,-52.44 -54.3,-90.34 4.22,-37.89 33.52,-69.12 73.03,-77.83 715.45,187.05 1460.01,184.38 2233.66,-8 37.63,11.82 63.07,44.83 63.22,82.08 0.15,37.25 -25.01,70.45 -62.54,82.53 -723.64,170.98 -1474.67,174.84 -2253.07,11.56z"/>
  <path class="fil0 str3" d="M4616.13 4291.24c-13.73,32.79 -1.64,70.71 28.54,89.54 30.15,18.8 69.53,12.96 92.94,-13.79 137.8,-436.37 206.71,-654.55 206.71,-654.55 -0.92,-50.03 -32.2,-94.45 -79,-112.16 -46.78,-17.7 -99.66,-5.12 -133.45,31.77 -616.28,715.81 -924.41,1073.71 -924.41,1073.71 -72.39,91.17 -34.25,135.44 114.44,132.83 554.9,-4.69 832.36,-7.02 832.36,-7.02 33.44,-9.89 55.8,-41.35 54.13,-76.19 -1.66,-34.84 -26.89,-64.02 -61.12,-70.7 -479.12,-2.33 -718.7,-3.49 -718.7,-3.49 467.49,-545.6 701.23,-818.4 701.23,-818.4 -75.78,285.63 -113.67,428.45 -113.67,428.45z"/>
  <path class="fil0 str3" d="M4574.84 5000.49c13.73,-32.79 1.64,-70.7 -28.54,-89.53 -30.15,-18.81 -69.53,-12.96 -92.94,13.78 -137.8,436.37 -206.71,654.55 -206.71,654.55 0.92,50.04 32.2,94.46 79.01,112.16 46.77,17.7 99.65,5.12 133.44,-31.77 616.28,-715.8 924.41,-1073.71 924.41,-1073.71 72.39,-91.17 34.25,-135.44 -114.43,-132.82 -554.91,4.68 -832.37,7.01 -832.37,7.01 -33.43,9.89 -55.8,41.35 -54.13,76.19 1.66,34.84 26.9,64.02 61.12,70.71 479.13,2.33 718.7,3.48 718.7,3.48 -467.49,545.6 -701.23,818.41 -701.23,818.41 75.78,-285.64 113.67,-428.46 113.67,-428.46z"/>
  <path class="fil0 str2" d="M3488.05 7479.19c-36.73,-16.2 -58.52,-52.44 -54.3,-90.34 4.22,-37.88 33.52,-69.12 73.03,-77.83 715.45,187.05 1460.01,184.38 2233.66,-7.99 37.63,11.81 63.07,44.82 63.22,82.07 0.15,37.26 -25.01,70.45 -62.54,82.54 -723.64,170.98 -1474.67,174.83 -2253.07,11.55z"/>
 </g>
</svg>
