<?xml version="1.0" encoding="UTF-8"?>
<!DOCTYPE svg PUBLIC "-//W3C//DTD SVG 1.1//EN" "http://www.w3.org/Graphics/SVG/1.1/DTD/svg11.dtd">
<!-- Creator: CorelDRAW -->
<svg xmlns="http://www.w3.org/2000/svg" xml:space="preserve" width="91.44mm" height="91.44mm" version="1.1" style="shape-rendering:geometricPrecision; text-rendering:geometricPrecision; image-rendering:optimizeQuality; fill-rule:evenodd; clip-rule:evenodd"
viewBox="0 0 9144 9144"
 xmlns:xlink="http://www.w3.org/1999/xlink"
 xmlns:xodm="http://www.corel.com/coreldraw/odm/2003">
 <defs>
  <style type="text/css">
   <![CDATA[
    .str0 {stroke:#1DA1AA;stroke-width:338.67;stroke-miterlimit:22.9256}
    .fil0 {fill:#1DA1AA}
   ]]>
  </style>
 </defs>
 <g id="Layer_x0020_1">
  <metadata id="CorelCorpID_0Corel-Layer"/>
  <path class="fil0 str0" d="M3756.92 8403.29c7.84,114.86 -59.22,185.04 -201.15,210.52 -1004.21,0 -1506.32,0 -1506.32,0 -443.57,-103.22 -697.74,-360.5 -762.53,-771.88 -9.37,-1762.05 -14.04,-2643.07 -14.04,-2643.07 -304.78,46.35 -608.06,-92.29 -772.46,-353.07 -164.38,-260.81 -158.64,-594.22 14.64,-849.2 2395.13,-2420.08 3592.7,-3630.14 3592.7,-3630.14 283.49,-228.59 691.76,-214.65 959,32.75 2339.02,2329.67 3508.53,3494.49 3508.53,3494.49 155.68,192.35 219.38,415.34 191.15,668.95 -93.71,414.82 -388.21,625.32 -883.5,631.52 -10.97,1387.83 -12.53,2240.79 -4.67,2558.88 -86.88,563.84 -381.59,850.76 -884.15,860.77 -876.35,3.12 -1314.53,4.67 -1314.53,4.67 -189.23,8.72 -285.91,-80.16 -290.04,-266.64 -6.22,-1334.79 -9.35,-2002.2 -9.35,-2002.2 -32.93,-213.83 -154.57,-335.46 -364.89,-364.89 -583.19,0 -874.78,0 -874.78,0 -244.41,26.09 -370.71,186.71 -378.93,481.83 -3.12,1291.13 -4.68,1936.71 -4.68,1936.71zm-483.96 -2104.11c2.67,1218.12 4.01,1827.19 4.01,1827.19 -786.15,-2.68 -1179.23,-4.01 -1179.23,-4.01 -198.03,-61.46 -305.36,-186.23 -321.97,-374.3 2.69,-1864.78 4.03,-2797.16 4.03,-2797.16 -32.43,-183.86 -134.39,-264.36 -305.88,-241.48 -249.53,-2.67 -374.3,-4.01 -374.3,-4.01 -97.53,-22.98 -176.48,-94.34 -209.14,-189.08 -32.67,-94.72 -14.48,-199.58 48.15,-277.79 2286.02,-2286.01 3429.03,-3429.03 3429.03,-3429.03 153.17,-146.42 292.7,-145.07 418.58,4.04 2269.92,2248.44 3404.87,3372.66 3404.87,3372.66 86.4,72.1 124.34,187.03 97.84,296.39 -26.48,109.38 -112.79,194.19 -222.61,218.78 -292.45,-2.7 -438.68,-4.04 -438.68,-4.04 -191.31,18.98 -274.48,145.09 -249.53,378.33 0,1786.96 0,2680.43 0,2680.43 -20.72,208.47 -152.2,334.58 -394.42,378.31 -737.87,-2.67 -1106.8,-4.01 -1106.8,-4.01 0,-1207.4 0,-1811.1 0,-1811.1 -70.98,-484.21 -347.33,-755.2 -829.07,-812.99 -651.99,-5.37 -978,-8.05 -978,-8.05 -436.99,43.39 -702.63,310.36 -796.88,800.92z"/>
 </g>
</svg>
