<?xml version="1.0" encoding="UTF-8"?>
<!DOCTYPE svg PUBLIC "-//W3C//DTD SVG 1.1//EN" "http://www.w3.org/Graphics/SVG/1.1/DTD/svg11.dtd">
<!-- Creator: CorelDRAW -->
<svg xmlns="http://www.w3.org/2000/svg" xml:space="preserve" width="91.44mm" height="91.44mm" version="1.1" style="shape-rendering:geometricPrecision; text-rendering:geometricPrecision; image-rendering:optimizeQuality; fill-rule:evenodd; clip-rule:evenodd"
viewBox="0 0 9144 9144"
 xmlns:xlink="http://www.w3.org/1999/xlink"
 xmlns:xodm="http://www.corel.com/coreldraw/odm/2003">
 <defs>
  <style type="text/css">
   <![CDATA[
    .str0 {stroke:#1DA1AA;stroke-width:254;stroke-miterlimit:22.9256}
    .fil0 {fill:none}
    .fil1 {fill:#1DA1AA}
    .fil2 {fill:white}
   ]]>
  </style>
 </defs>
 <g id="Layer_x0020_1">
  <metadata id="CorelCorpID_0Corel-Layer"/>
  <path class="fil0 str0" d="M1066.03 2036.43c-10.3,-278.47 108.22,-458.92 355.58,-541.44 4241.71,7.49 6362.62,11.24 6362.62,11.24 266.09,12.7 407.72,204.48 424.89,575.36 0,3286.62 0,5099.09 0,5437.5 -33.61,323.33 -254.23,458.71 -661.84,406.16 -1827.56,21.96 -3820.57,14.36 -5979.04,-22.58 -364.95,23 -532.39,-210.1 -502.21,-699.41 0,-3444.59 0,-5166.83 0,-5166.83z"/>
  <rect class="fil0 str0" x="1509.54" y="2794.63" width="6228.38" height="4637.46"/>
  <rect class="fil0 str0" x="4799.55" y="3874.81" width="939.58" height="815.65"/>
  <rect class="fil0 str0" x="4799.55" y="3874.81" width="939.58" height="815.65"/>
  <rect class="fil1 str0" x="6146.85" y="3880.01" width="939.58" height="815.65"/>
  <rect class="fil0 str0" x="2141.05" y="5036.25" width="939.58" height="815.65"/>
  <rect class="fil0 str0" x="3457.34" y="5031.05" width="939.58" height="815.65"/>
  <rect class="fil0 str0" x="4804.65" y="5036.25" width="939.58" height="815.65"/>
  <rect class="fil0 str0" x="6146.85" y="5036.25" width="939.58" height="815.65"/>
  <rect class="fil0 str0" x="2115.24" y="6197.7" width="939.58" height="815.65"/>
  <rect class="fil0 str0" x="3483.15" y="6202.9" width="939.58" height="815.65"/>
  <rect class="fil0 str0" x="4804.65" y="6192.6" width="939.58" height="815.65"/>
  <rect class="fil0 str0" x="6162.36" y="6187.5" width="939.58" height="815.65"/>
  <rect class="fil2 str0" x="2887.29" y="978.37" width="803.26" height="1062.38" rx="285.03" ry="285.03"/>
  <rect class="fil2 str0" x="5659.73" y="971.92" width="803.26" height="1062.38" rx="285.03" ry="285.03"/>
 </g>
</svg>
