<?xml version="1.0" encoding="UTF-8"?>
<!DOCTYPE svg PUBLIC "-//W3C//DTD SVG 1.1//EN" "http://www.w3.org/Graphics/SVG/1.1/DTD/svg11.dtd">
<!-- Creator: CorelDRAW -->
<svg xmlns="http://www.w3.org/2000/svg" xml:space="preserve" width="91.44mm" height="91.44mm" version="1.1" style="shape-rendering:geometricPrecision; text-rendering:geometricPrecision; image-rendering:optimizeQuality; fill-rule:evenodd; clip-rule:evenodd"
viewBox="0 0 9144 9144"
 xmlns:xlink="http://www.w3.org/1999/xlink"
 xmlns:xodm="http://www.corel.com/coreldraw/odm/2003">
 <defs>
  <style type="text/css">
   <![CDATA[
    .str4 {stroke:#1DA1AA;stroke-width:84.67;stroke-miterlimit:22.9256}
    .str5 {stroke:#1DA1AA;stroke-width:8.47;stroke-miterlimit:22.9256}
    .str2 {stroke:#7B56E8;stroke-width:8.47;stroke-miterlimit:22.9256}
    .str1 {stroke:#1DA1AA;stroke-width:67.73;stroke-miterlimit:22.9256}
    .str0 {stroke:black;stroke-width:7.62;stroke-miterlimit:22.9256}
    .str3 {stroke:#1DA1AA;stroke-width:7.62;stroke-miterlimit:22.9256}
    .str6 {stroke:white;stroke-width:7.62;stroke-miterlimit:22.9256}
    .fil0 {fill:none}
    .fil1 {fill:#1DA1AA}
    .fil2 {fill:white}
   ]]>
  </style>
 </defs>
 <g id="Layer_x0020_1">
  <metadata id="CorelCorpID_0Corel-Layer"/>
  <circle class="fil0 str0" cx="5821.97" cy="4153.12" r="1172.58"/>
  <rect class="fil1 str1" x="1342.15" y="841.22" width="4641.46" height="7461.55" rx="1263.18" ry="1263.18"/>
  <rect class="fil2 str2" x="1519.59" y="1055.93" width="4314.11" height="6935.31" rx="1174.09" ry="1174.09"/>
  <path class="fil1 str1" d="M3891.94 3283.97c62.37,-300.08 229.26,-482.85 500.66,-548.33l2860.92 -5.97c329.11,67.44 503.95,274.06 524.5,619.86 15.89,1168.21 23.83,1752.32 23.83,1752.32 -29.99,401.5 -246.53,604.14 -649.65,607.94 -218.55,3.96 -327.83,5.95 -327.83,5.95 -97.85,-27 -217.06,40.55 -357.61,202.66 -353.64,317.86 -530.46,476.81 -530.46,476.81 -43.98,87.67 -101.6,87.67 -172.85,0 -433.68,-439.87 -693.94,-658.41 -780.79,-655.62 -37.27,-27.32 -222.05,-37.26 -554.3,-29.8 -329.24,-89.87 -510.02,-294.5 -542.38,-613.91 3.98,-1207.95 5.96,-1811.91 5.96,-1811.91z"/>
  <path class="fil2" d="M4067.34 3420.02c55.99,-263.6 205.84,-424.16 449.51,-481.67l2568.67 -5.25c295.5,59.24 452.47,240.75 470.93,544.51 14.26,1026.2 21.39,1539.31 21.39,1539.31 -26.92,352.69 -221.35,530.7 -583.29,534.04 -196.22,3.48 -294.34,5.23 -294.34,5.23 -87.85,-23.72 -194.88,35.62 -321.07,178.02 -317.52,279.23 -476.28,418.85 -476.28,418.85 -39.48,77.01 -91.22,77.01 -155.19,0 -389.38,-386.4 -623.06,-578.37 -701.03,-575.93 -33.47,-23.99 -199.37,-32.73 -497.68,-26.17 -295.61,-78.94 -457.92,-258.7 -486.98,-539.28 3.58,-1061.11 5.36,-1591.66 5.36,-1591.66z"/>
  <rect class="fil1 str3" x="2578.93" y="1343.02" width="2245.66" height="244.48" rx="122.24" ry="122.24"/>
  <rect class="fil1 str3" x="3168.6" y="7536.29" width="991.28" height="244.48" rx="53.96" ry="122.24"/>
  <path class="fil1 str3" d="M6248.77 3598.69c-24.32,-44.54 -17.37,-63.81 20.83,-57.82 194.78,5.76 353.59,123.74 476.47,353.9 66.37,132.89 64.65,289.6 -4.61,420.99 -57.69,89.73 -155.22,145.99 -261.75,151.05 -106.55,5.05 -208.96,-41.75 -274.88,-125.61 -101.28,-153.29 -98.99,-292.85 6.93,-418.67 101.32,-103.62 113.67,-211.57 37.01,-323.84z"/>
  <path class="fil1 str3" d="M5548.09 4208.07c-161.41,174.9 -324.17,171.82 -488.29,-9.25 163.14,-135.72 325.9,-132.63 488.29,9.25z"/>
  <path class="fil1 str3" d="M5060.38 3714.76c137.34,150.7 133.6,300.41 -11.22,449.17 -105.71,-137.1 -127.84,-254.31 -66.4,-351.63 26.72,-41.06 52.6,-73.56 77.62,-97.54z"/>
  <path class="fil1 str3" d="M5745.97 3945.47c-131.76,171.49 -279.31,182.03 -442.65,31.6 136.52,-136.18 284.07,-146.71 442.65,-31.6z"/>
  <path class="fil1 str3" d="M5313.95 3510.25c120.32,162.47 101.57,309.78 -56.26,441.96 -90.49,-145.89 -100.52,-263.73 -30.12,-353.56 30.49,-37.81 59.29,-67.27 86.38,-88.4z"/>
  <path class="fil1 str3" d="M5904.42 3717.05c-105.69,156.25 -233.6,173.19 -383.73,50.82 111.69,-125.76 239.6,-142.69 383.73,-50.82z"/>
  <path class="fil1 str3" d="M5529.46 3349.08c104.94,141.71 88.59,270.2 -49.08,385.49 -78.93,-127.24 -87.68,-230.03 -26.27,-308.39 26.59,-32.98 51.71,-58.67 75.35,-77.1z"/>
  <path class="fil0 str4" d="M4930.65 4314.98c455.02,-448.51 682.53,-672.77 682.53,-672.77"/>
  <path class="fil1 str3" d="M5907.73 3342.45c12.53,227.63 -98.17,337.46 -332.12,329.46 15.54,-202.68 126.25,-312.49 332.12,-329.46z"/>
  <circle class="fil1 str3" cx="5825.83" cy="4977.4" r="218.9"/>
  <circle class="fil1 str3" cx="5819.86" cy="4393.66" r="113.92"/>
  <circle class="fil1 str5" cx="5379.09" cy="4828.48" r="113.92"/>
  <circle class="fil1 str5" cx="6269.6" cy="4825.52" r="113.92"/>
  <path class="fil0 str1" d="M5825.83 4794.35c-3.98,-229.67 -5.97,-344.49 -5.97,-344.49"/>
  <line class="fil0 str1" x1="5983.2" y1="4932.05" x2="6269.63" y2= "4825.46" />
  <line class="fil0 str1" x1="5676.28" y1="4934.87" x2="5379.74" y2= "4828.76" />
  <circle class="fil1 str3" cx="6129.86" cy="3468.52" r="49.46"/>
  <path class="fil2 str6" d="M6520.35 4241.67c-8.38,-4.5 -18.33,-0.11 -25.23,11.12 -6.89,11.26 -9.34,27.12 -6.24,40.24 12.53,52.7 101.1,36.51 135.52,-4.2 35.29,-41.75 55.16,-108.83 51.23,-172.96 -4.72,-18.44 -17.06,-27.94 -30.24,-23.32 -13.17,4.64 -23.96,22.3 -26.41,43.27 -4.82,70.5 -37.68,105.78 -98.63,105.85z"/>
 </g>
</svg>
