<?xml version="1.0" encoding="UTF-8"?>
<!DOCTYPE svg PUBLIC "-//W3C//DTD SVG 1.1//EN" "http://www.w3.org/Graphics/SVG/1.1/DTD/svg11.dtd">
<!-- Creator: CorelDRAW -->
<svg xmlns="http://www.w3.org/2000/svg" xml:space="preserve" width="91.44mm" height="91.44mm" version="1.1" style="shape-rendering:geometricPrecision; text-rendering:geometricPrecision; image-rendering:optimizeQuality; fill-rule:evenodd; clip-rule:evenodd"
viewBox="0 0 9144 9144"
 xmlns:xlink="http://www.w3.org/1999/xlink"
 xmlns:xodm="http://www.corel.com/coreldraw/odm/2003">
 <defs>
  <style type="text/css">
   <![CDATA[
    .str0 {stroke:#1DA1AA;stroke-width:33.87;stroke-miterlimit:22.9256}
    .fil0 {fill:#1DA1AA}
   ]]>
  </style>
 </defs>
 <g id="Layer_x0020_1">
  <metadata id="CorelCorpID_0Corel-Layer"/>
  <path class="fil0 str0" d="M745.12 2711.38c770.92,-1078.44 1184.99,-1613.92 1242.26,-1606.4 3489.8,0 5234.69,0 5234.69,0 784.53,1014.47 1176.81,1521.73 1176.81,1521.73 0,852.17 0,1278.25 0,1278.25 -6.38,91.47 -120.43,129.81 -342.24,115.07l16.05 3783.62c12.35,144.84 -62.57,219.76 -224.78,224.77 -4374.11,7.11 -6561.16,10.69 -6561.16,10.69 -107.31,-14.07 -166.35,-89.1 -177.15,-225.11 -3.58,-2529.87 -5.35,-3794.82 -5.35,-3794.82 -139.37,-3.58 -209.04,-5.36 -209.04,-5.36 -95.75,-6.45 -145.8,-88.64 -150.09,-246.56 0,-703.92 0,-1055.88 0,-1055.88zm7112.92 -159.33c-522.88,-720.98 -784.31,-1081.46 -784.31,-1081.46l-696.65 9.73c347.51,724.25 521.28,1086.36 521.28,1086.36 639.77,-9.76 959.68,-14.63 959.68,-14.63zm-1383.51 -9.76c-363.75,-720.98 -545.61,-1081.45 -545.61,-1081.45 -487.16,6.48 -730.73,9.72 -730.73,9.72 185.13,717.74 277.69,1076.61 277.69,1076.61 665.77,-3.24 998.65,-4.88 998.65,-4.88zm-2372.46 -21.91c168.89,-708.01 253.33,-1062 253.33,-1062 308.54,3.24 462.8,4.88 462.8,4.88 178.62,707.98 267.94,1061.97 267.94,1061.97 -656.05,-3.24 -984.07,-4.85 -984.07,-4.85zm-1402.99 24.33c363.74,-720.97 545.6,-1081.45 545.6,-1081.45 487.16,6.49 730.74,9.73 730.74,9.73 -185.13,717.73 -277.7,1076.6 -277.7,1076.6 -665.77,-3.24 -998.64,-4.88 -998.64,-4.88zm-1368.91 0c522.88,-720.97 784.31,-1081.45 784.31,-1081.45l696.65 9.73c-347.51,724.25 -521.28,1086.36 -521.28,1086.36 -639.77,-9.76 -959.68,-14.64 -959.68,-14.64zm5630.55 378.69l1112.22 0 0 721.29 -1112.22 0 0 -721.29zm-1459.1 -5.49l1112.22 0 0 721.29 -1112.22 0 0 -721.29zm-1470.12 0l1112.21 0 0 721.29 -1112.21 0 0 -721.29zm-1464.63 0l1112.22 0 0 721.29 -1112.22 0 0 -721.29zm-1464.6 8.26l1112.22 0 0 721.29 -1112.22 0 0 -721.29zm2561.73 2914.42l1842.25 0 0 1823.64 -1842.25 0 0 -1823.64zm-2180.22 1829.16c15.03,-2428.79 22.56,-3643.18 22.56,-3643.18 4129.38,-5.64 6194.08,-8.46 6194.08,-8.46 -1.88,2415.62 -2.81,3623.42 -2.81,3623.42 -1215.3,3.75 -1822.96,5.64 -1822.96,5.64 -1.89,-1318.8 -2.82,-1978.2 -2.82,-1978.2 -9.79,-128.6 -68.12,-195.4 -174.96,-200.36 -1491.83,7.53 -2237.76,11.28 -2237.76,11.28 -123.53,6.51 -175.26,89.29 -155.22,248.34 0,1281.19 0,1921.79 0,1921.79 -1213.4,13.16 -1820.11,19.73 -1820.11,19.73z"/>
 </g>
</svg>
