<?xml version="1.0" encoding="UTF-8"?>
<!DOCTYPE svg PUBLIC "-//W3C//DTD SVG 1.1//EN" "http://www.w3.org/Graphics/SVG/1.1/DTD/svg11.dtd">
<!-- Creator: CorelDRAW -->
<svg xmlns="http://www.w3.org/2000/svg" xml:space="preserve" width="91.44mm" height="91.44mm" version="1.1" style="shape-rendering:geometricPrecision; text-rendering:geometricPrecision; image-rendering:optimizeQuality; fill-rule:evenodd; clip-rule:evenodd"
viewBox="0 0 9144 9144"
 xmlns:xlink="http://www.w3.org/1999/xlink"
 xmlns:xodm="http://www.corel.com/coreldraw/odm/2003">
 <defs>
  <style type="text/css">
   <![CDATA[
    .str0 {stroke:#1DA1AA;stroke-width:254;stroke-miterlimit:22.9256}
    .fil0 {fill:none}
    .fil1 {fill:white}
   ]]>
  </style>
 </defs>
 <g id="Layer_x0020_1">
  <metadata id="CorelCorpID_0Corel-Layer"/>
  <path class="fil0 str0" d="M6276.67 1398.5c-10.19,1430.08 -13.5,2067.08 -13.5,2067.08 -24.1,204.56 -161.55,435.68 -412.35,693.52 10.19,2107.38 15.36,3161.2 15.36,3161.2 19.57,157.44 -47.94,312.83 -173.83,400.08 -125.73,87.09 -287.76,90.42 -416.72,8.45 -128.96,-81.7 -202.13,-234.27 -188.54,-392.48 0,-2064.43 0,-3096.65 0,-3096.65 -242.8,-272.7 -380.17,-498.52 -412.35,-677.3 -10.11,-1440.84 -15.2,-2161.26 -15.2,-2161.26"/>
  <line class="fil0 str0" x1="4969.5" y1="1401.59" x2="4984.78" y2= "3096.93" />
  <line class="fil0 str0" x1="5325.78" y1="1391.54" x2="5341.06" y2= "3086.89" />
  <path class="fil0 str0" d="M5966.6 3089.61l-15.04 -1689.09c95.65,-73.58 228.57,-74.39 325.11,-2.02 -0.16,23.85 -0.24,35.73 -0.24,35.73"/>
  <path class="fil0 str0" d="M4176.44 1456.24c20.36,3981.26 30.56,5971.87 30.56,5971.87 -42.78,210.19 -224.13,363.57 -438.53,370.85 -214.36,7.28 -405.72,-133.5 -462.63,-340.29 -30.51,-1517.16 -45.79,-2275.76 -45.79,-2275.76 -181.3,-114.53 -293.34,-338.51 -336.02,-672 -46.13,-746.67 -89.67,-3347.97 1252.41,-3054.67z"/>
  <g>
   <path class="fil1" d="M4572 3273.54c3.34,0 6.66,0.11 10,0.13 1080.25,5.39 1954.27,882.62 1954.27,1964.14l-1964.27 0 0 -5 0 -1959.27zm-1964.26 1964.27c0,-3.34 0.11,-6.66 0.13,-10 5.39,-1080.25 882.62,-1954.27 1964.13,-1954.27l0 1959.27 0 5 1964.27 0 -3928.53 0zm3928.53 0l-1964.27 0 0 1964.26c1084.86,0 1964.27,-879.41 1964.27,-1964.26zm-1964.27 0l0 1964.26c-1084.85,0 -1964.26,-879.41 -1964.26,-1964.26l1964.26 0zm0 0l1964.27 0 -1964.27 0 -1964.26 0 1964.26 0z"/>
   <path id="_1" class="fil0 str0" d="M4572 3273.54c3.34,0 6.66,0.11 10,0.13 1080.25,5.39 1954.27,882.62 1954.27,1964.14l-1964.27 0 0 -5 0 -1959.27zm-1964.26 1964.27c0,-3.34 0.11,-6.66 0.13,-10 5.39,-1080.25 882.62,-1954.27 1964.13,-1954.27l0 1959.27 0 5 1964.27 0m0 0l-1964.27 0 0 1964.26c1084.86,0 1964.27,-879.41 1964.27,-1964.26zm-1964.27 0l0 1964.26c-1084.85,0 -1964.26,-879.41 -1964.26,-1964.26l1964.26 0zm0 0l1964.27 0 -1964.27 0 -1964.26 0 1964.26 0z"/>
  </g>
  <line class="fil0 str0" x1="3797.4" y1="3924.23" x2="3797.4" y2= "4908.3" />
  <line class="fil0 str0" x1="4289.44" y1="4416.26" x2="3305.37" y2= "4416.26" />
  <line class="fil0 str0" x1="4100.39" y1="5623.05" x2="3404.55" y2= "6318.9" />
  <line class="fil0 str0" x1="4100.39" y1="6318.9" x2="3404.55" y2= "5623.05" />
  <line class="fil0 str0" x1="5954.7" y1="4422.11" x2="4970.63" y2= "4422.11" />
  <line class="fil0 str0" x1="5909.73" y1="5739.17" x2="4925.65" y2= "5739.17" />
  <line class="fil0 str0" x1="5911.31" y1="6072.52" x2="4927.23" y2= "6072.52" />
  <line class="fil0 str0" x1="5628.65" y1="1390.25" x2="5643.93" y2= "3085.6" />
  <path class="fil0 str0" d="M5629.04 1432.86c0,0 -0.16,-14.23 -0.4,-42.61 -93.47,-55.38 -209.82,-54.9 -302.8,1.29 0.25,28.46 0.41,42.69 0.41,42.69"/>
  <path class="fil0 str0" d="M4970.01 1451.7c0,0 -0.16,-16.74 -0.48,-50.13 -97.67,-66.95 -201,-67.11 -309.99,-0.57 0.24,34.85 0.4,52.23 0.4,52.23"/>
 </g>
</svg>
