<?xml version="1.0" encoding="UTF-8"?>
<!DOCTYPE svg PUBLIC "-//W3C//DTD SVG 1.1//EN" "http://www.w3.org/Graphics/SVG/1.1/DTD/svg11.dtd">
<!-- Creator: CorelDRAW -->
<svg xmlns="http://www.w3.org/2000/svg" xml:space="preserve" width="91.44mm" height="91.44mm" version="1.1" style="shape-rendering:geometricPrecision; text-rendering:geometricPrecision; image-rendering:optimizeQuality; fill-rule:evenodd; clip-rule:evenodd"
viewBox="0 0 9144 9144"
 xmlns:xlink="http://www.w3.org/1999/xlink"
 xmlns:xodm="http://www.corel.com/coreldraw/odm/2003">
 <defs>
  <style type="text/css">
   <![CDATA[
    .str0 {stroke:#1DA1AA;stroke-width:211.67;stroke-miterlimit:22.9256}
    .fil0 {fill:#1DA1AA}
   ]]>
  </style>
 </defs>
 <g id="Layer_x0020_1">
  <metadata id="CorelCorpID_0Corel-Layer"/>
  <path class="fil0 str0" d="M824.49 1026.09c885.65,209.92 1328.46,314.88 1328.46,314.88 170.6,813.51 255.9,1220.25 255.9,1220.25 3738.37,33.72 5607.54,50.59 5607.54,50.59 187.83,-0.26 284.24,167.43 275.11,392.22 -335.96,1639.72 -503.93,2459.58 -503.93,2459.58 -25.08,171.78 -134.94,260.74 -329.58,266.91 -2950.82,0 -4426.23,0 -4426.23,0 63.57,334.11 95.34,501.18 95.34,501.18 2887.25,5.45 4330.89,8.16 4330.89,8.16 78.73,17.57 134.92,87.12 135.58,167.79 0.67,80.67 -54.4,151.12 -132.84,169.96 -2927.21,9.09 -4390.82,13.62 -4390.82,13.62 -141.01,3.1 -260.51,-101.73 -274.49,-242.08 -639.89,-3182.17 -959.82,-4773.27 -959.82,-4773.27 -737.62,-171.83 -1106.43,-257.74 -1106.43,-257.74 -63.74,-6.69 -117.04,-51.41 -134.68,-113.06 -17.61,-61.62 3.97,-127.77 54.55,-167.14 50.59,-39.38 117.1,-24.68 175.45,-11.85zm6633.78 4386.37c-3000.45,-24.81 -4500.7,-37.2 -4500.7,-37.2 -330.22,-1608.56 -495.34,-2412.85 -495.34,-2412.85 3646.62,-4.05 5469.94,-6.07 5469.94,-6.07 -315.94,1637.41 -473.9,2456.12 -473.9,2456.12zm-3414.06 -957.77l2334.46 0c88.56,0 160.98,72.42 160.98,160.97l0 17.92c0,88.56 -72.42,160.98 -160.98,160.98l-2334.46 0c-88.55,0 -160.97,-72.42 -160.97,-160.98l0 -17.92c0,-88.55 72.42,-160.97 160.97,-160.97zm-156.52 -916.76l2611.72 0c88.55,0 160.97,72.43 160.97,160.98l0 17.92c0,88.55 -72.42,160.98 -160.97,160.98l-2611.72 0c-88.55,0 -160.97,-72.43 -160.97,-160.98l0 -17.92c0,-88.55 72.42,-160.98 160.97,-160.98z"/>
  <path class="fil0 str0" d="M3887.69 3537.93l2611.72 0c88.55,0 160.97,72.43 160.97,160.98l0 17.92c0,88.55 -72.42,160.98 -160.97,160.98l-2611.72 0c-88.55,0 -160.97,-72.43 -160.97,-160.98l0 -17.92c0,-88.55 72.42,-160.98 160.97,-160.98z"/>
  <path class="fil0 str0" d="M4044.21 4454.69l2334.46 0c88.56,0 160.98,72.42 160.98,160.97l0 17.92c0,88.56 -72.42,160.98 -160.98,160.98l-2334.46 0c-88.55,0 -160.97,-72.42 -160.97,-160.98l0 -17.92c0,-88.55 72.42,-160.97 160.97,-160.97z"/>
  <path class="fil0 str0" d="M4062.34 6908.24c348.52,0 631.05,282.53 631.05,631.06 0,348.52 -282.53,631.05 -631.05,631.05 -348.53,0 -631.05,-282.53 -631.05,-631.05 0,-348.53 282.52,-631.06 631.05,-631.06zm18.1 331.04c155.73,0 281.91,126.19 281.91,281.92 0,155.73 -126.18,281.91 -281.91,281.91 -155.73,0 -281.92,-126.18 -281.92,-281.91 0,-155.73 126.19,-281.92 281.92,-281.92z"/>
  <path class="fil0 str0" d="M6338.3 6908.24c348.53,0 631.06,282.53 631.06,631.06 0,348.52 -282.53,631.05 -631.06,631.05 -348.52,0 -631.05,-282.53 -631.05,-631.05 0,-348.53 282.53,-631.06 631.05,-631.06zm0 349.14c155.71,0 281.92,126.21 281.92,281.92 0,155.7 -126.21,281.91 -281.92,281.91 -155.7,0 -281.91,-126.21 -281.91,-281.91 0,-155.71 126.21,-281.92 281.91,-281.92z"/>
 </g>
</svg>
